<?xml version="1.0" encoding="UTF-8" standalone="no"?><!DOCTYPE svg PUBLIC "-//W3C//DTD SVG 1.1//EN" "http://www.w3.org/Graphics/SVG/1.1/DTD/svg11.dtd"><svg width="100%" height="100%" viewBox="0 0 461 260" version="1.1" xmlns="http://www.w3.org/2000/svg" xmlns:xlink="http://www.w3.org/1999/xlink" xml:space="preserve" xmlns:serif="http://www.serif.com/" style="fill-rule:evenodd;clip-rule:evenodd;stroke-linecap:round;stroke-linejoin:round;stroke-miterlimit:1.5;"><rect id="Background-Image" serif:id="Background Image" x="0" y="0" width="460.8" height="259.2" style="fill:none;"/><clipPath id="_clip1"><rect x="0" y="0" width="460.8" height="259.2"/></clipPath><g clip-path="url(#_clip1)"><rect x="0" y="0.709" width="460.8" height="258.491" style="fill:#fff;"/><rect x="0" y="0" width="460.8" height="196.189" style="fill:#def2fb;"/><g><rect x="178.06" y="8.385" width="70.666" height="188.004" style="fill:#c1e7fa;"/><rect x="135.71" y="76.871" width="34.405" height="119.519" style="fill:#c1e7fa;"/><rect x="93.36" y="64.719" width="34.405" height="131.671" style="fill:#c1e7fa;"/><rect x="110.562" y="101.741" width="31.502" height="94.649" style="fill:#c1e7fa;"/><rect x="341.604" y="101.741" width="31.502" height="94.649" style="fill:#c1e7fa;"/><rect x="79.06" y="122.665" width="31.502" height="73.725" style="fill:#c1e7fa;"/><rect x="373.107" y="122.665" width="21.887" height="73.725" style="fill:#c1e7fa;"/><rect x="373.107" y="163.167" width="43.773" height="33.222" style="fill:#c1e7fa;"/><path d="M85.414,107.457l-16.468,0l-17.936,23.672l0,65.26l34.404,0l0,-88.932Z" style="fill:#c1e7fa;"/><rect x="98.186" y="59.688" width="24.752" height="5.03" style="fill:#c1e7fa;"/><rect x="108.614" y="57.606" width="3.897" height="2.082" style="fill:#c1e7fa;"/><rect x="108.614" y="43.136" width="3.897" height="0.881" style="fill:#c1e7fa;"/><rect x="109.631" y="44.017" width="1.862" height="0.881" style="fill:#c1e7fa;"/><rect x="110.207" y="43.136" width="0.71" height="14.47" style="fill:#c1e7fa;"/><rect x="256.672" y="40.573" width="45.997" height="155.816" style="fill:#c1e7fa;"/><path d="M356.611,83.294l-25.773,-42.721l-20.224,0l0,155.816l45.997,0l0,-113.095Z" style="fill:#c1e7fa;"/><rect x="403.752" y="100.01" width="25.183" height="96.379" style="fill:#c1e7fa;"/><rect x="407.285" y="96.328" width="18.118" height="3.682" style="fill:#c1e7fa;"/><rect x="414.918" y="94.804" width="2.852" height="1.524" style="fill:#c1e7fa;"/><rect x="414.918" y="84.212" width="2.852" height="0.645" style="fill:#c1e7fa;"/><rect x="415.663" y="84.857" width="1.363" height="0.645" style="fill:#c1e7fa;"/><rect x="416.084" y="84.212" width="0.52" height="10.592" style="fill:#c1e7fa;"/></g><path d="M107.184,96.175l-39.485,0c0,0 0.392,-1.159 4.466,-1.409c4.788,-0.294 3.046,-1.121 5.653,-3.096c3.068,-2.325 2.503,0.081 3.735,0.741c2.509,1.344 2.883,-2.48 5.848,-3.05c4.133,-0.794 -0.381,3.554 5.59,1.567c5.096,-1.696 2.294,3.419 5.819,1.719c3.525,-1.7 1.763,3.104 5.209,1.196c2.419,-1.339 0.608,1.222 4.258,1.377c3.285,0.14 4.331,0.875 4.331,0.875l-5.424,0.08Z" style="fill:#f7fcff;"/><g><path d="M56.088,158.941c0,0 -3.34,7.26 -10.32,7.26c-6.98,0 -4.937,-6.492 -7.549,-9.639c-3.243,-3.908 -11.914,-8.705 -11.914,-13.813c0,-5.108 10.361,-7.475 10.361,-11.313c0,-3.838 -5.45,-12.569 1.897,-15.947c7.346,-3.377 4.564,2.047 15.284,-0.568c10.72,-2.615 10.322,-10.14 16.016,-7.194c5.693,2.947 3.24,5.083 5.667,10.371c2.428,5.288 7.967,4.927 7.237,10.204c-0.73,5.278 -4.91,3.964 -2.831,6.654c2.079,2.691 8.888,6.168 5.43,9.364c-3.458,3.195 -5.432,4.524 -5.902,6.181c-0.47,1.658 1.967,14.297 -8.814,11.701c-10.78,-2.597 -11.791,-6.273 -14.562,-3.261Z" style="fill:#71cef7;"/><path d="M56.317,140.32l-11.418,-3.929" style="fill:none;stroke:#fff;stroke-width:0.24px;"/><path d="M56.317,196.158l0,-71.274" style="fill:none;stroke:#fff;stroke-width:0.24px;"/><path d="M63.882,127.741l1.6,-5.715" style="fill:none;stroke:#fff;stroke-width:0.24px;"/><path d="M59.204,129.861l9.357,1.308" style="fill:none;stroke:#fff;stroke-width:0.24px;"/><path d="M46.862,137.067l-5.744,2.084" style="fill:none;stroke:#fff;stroke-width:0.24px;"/><path d="M64.446,148.149l1.036,-5.518" style="fill:none;stroke:#fff;stroke-width:0.24px;"/><path d="M56.317,151.229l18.329,-6.945" style="fill:none;stroke:#fff;stroke-width:0.24px;"/><path d="M56.317,131.169l12.244,-5.547" style="fill:none;stroke:#fff;stroke-width:0.24px;"/><path d="M50.608,138.356l-2.341,-4.729" style="fill:none;stroke:#fff;stroke-width:0.24px;"/><path d="M68.363,146.665l6.283,1.484" style="fill:none;stroke:#fff;stroke-width:0.24px;"/></g><path d="M5.474,195.812c0,0 2.522,-25.973 17.854,-14.288c7.627,5.813 24.189,13.286 22.159,-3.382c-2.032,-16.678 15.706,-8.043 18.174,-4.935c11.7,14.728 21.865,11.1 22.712,-1.126c0.673,-9.727 8.275,-13.645 22.009,-4.541c13.733,9.105 9.674,-3.518 20.993,-12.294c16.019,-12.422 20.893,9.21 41.966,-4.277c21.074,-13.488 29.107,-60.209 48.853,-38.034c19.746,22.175 10.454,76.739 36.018,60.983c25.564,-15.757 20.67,-49.009 40.226,-34.291c19.556,14.717 33.6,60.214 55.555,40.013c14.249,-13.11 34.228,-26.393 40.115,-12.1c9.238,22.43 19.934,18.594 29.085,8.522c9.674,-10.646 12.38,-0.433 18.538,8.806c6.731,10.1 21.069,10.944 21.069,10.944l-455.326,0Z" style="fill:#64b6db;"/><g><rect x="75.407" y="184.993" width="22.361" height="8.497" style="fill:#27789b;"/><path d="M141.035,175.639l-108.895,0l0,4.554c0,1.273 0.506,2.494 1.406,3.394c0.9,0.9 2.121,1.406 3.394,1.406l99.295,0c1.273,0 2.494,-0.506 3.394,-1.406c0.9,-0.9 1.406,-2.121 1.406,-3.394l0,-4.554Z" style="fill:#fff;"/><path d="M86.588,177.666c1.46,0 2.65,1.189 2.65,2.651c0,1.461 -1.19,2.65 -2.65,2.65c-1.46,0 -2.651,-1.19 -2.651,-2.65c0,-1.46 1.19,-2.651 2.651,-2.651Zm1.054,4.018l-2.264,0l1.378,-2.192l-1.244,0l0,-0.542l2.296,0l-1.398,2.222l1.231,0l0,0.512l0.001,0Z" style="fill:#86d5fd;"/><path d="M141.035,175.639l-108.895,0l0,-53.884c0,-0.318 0.127,-0.623 0.352,-0.848c0.225,-0.225 0.53,-0.352 0.848,-0.352l106.495,0c0.318,0 0.623,0.127 0.848,0.352c0.225,0.225 0.352,0.53 0.352,0.848l0,53.884Z" style="fill:#001d4c;"/><path d="M136.998,171.783l-56.893,0l-43.928,0l0,-47.372l100.821,0l0,47.372Z" style="fill:#e1f3ff;"/><path d="M132.546,171.783l-51.868,0l-40.049,0l0,-47.372l91.917,0l0,47.372Z" style="fill:#fff;"/><path d="M132.546,129.919l-51.868,0l-40.049,0l0,-2.375l91.917,0l0,2.375Z" style="fill:#fff;"/><path d="M40.656,129.921l51.868,0l40.049,0l0,2.787l-91.917,0l0,-2.787Z" style="fill:#d3eefb;"/><path d="M59.307,145.455l-8.727,0l-6.739,0l0,-10.034l15.466,0l0,10.034Z" style="fill:#d3eefb;"/><rect x="80.106" y="135.421" width="49.148" height="29.678" style="fill:#d3eefb;"/><rect x="80.106" y="167.07" width="49.148" height="4.713" style="fill:#edf9ff;"/><rect x="43.841" y="167.07" width="33.598" height="4.713" style="fill:#edf9ff;"/><path d="M77.439,145.455l-8.727,0l-6.738,0l0,-10.034l15.465,0l0,10.034Z" style="fill:#8bc9d3;"/><path d="M77.439,165.099l-18.959,0l-14.639,0l0,-17.961l33.598,0l0,17.961Z" style="fill:#d3eefb;"/><path d="M51.208,161.868l-1.045,0l-0.807,0l0,-5.49l1.852,0l0,5.49Z" style="fill:#8bc9d3;"/><path d="M54.168,161.868l-1.046,0l-0.807,0l0,-8.835l1.853,0l0,8.835Z" style="fill:#8bc9d3;"/><path d="M57.127,161.868l-1.045,0l-0.807,0l0,-2.745l1.852,0l0,2.745Z" style="fill:#8bc9d3;"/><path d="M60.087,161.868l-1.046,0l-0.807,0l0,-5.749l1.853,0l0,5.749Z" style="fill:#8bc9d3;"/><path d="M63.046,161.868l-1.045,0l-0.807,0l0,-4.291l1.852,0l0,4.291Z" style="fill:#8bc9d3;"/><path d="M66.006,161.868l-1.046,0l-0.807,0l0,-11.499l1.853,0l0,11.499Z" style="fill:#8bc9d3;"/><path d="M68.965,161.868l-1.045,0l-0.807,0l0,-6.463l1.852,0l0,6.463Z" style="fill:#8bc9d3;"/><path d="M71.925,161.868l-1.046,0l-0.807,0l0,-8.585l1.853,0l0,8.585Z" style="fill:#8bc9d3;"/><path d="M136.998,127.544l-56.893,0l-43.928,0l0,-3.133l100.821,0l0,3.133Z" style="fill:#71cef7;"/><ellipse cx="42.208" cy="128.732" rx="0.414" ry="0.383" style="fill:#ff6c61;"/><ellipse cx="43.787" cy="128.732" rx="0.414" ry="0.383" style="fill:#ffcf61;"/><ellipse cx="45.367" cy="128.732" rx="0.414" ry="0.383" style="fill:#99ff61;"/><path d="M38.107,124.988c0.546,0 0.99,0.444 0.99,0.99c0,0.545 -0.444,0.989 -0.99,0.989c-0.545,0 -0.989,-0.444 -0.989,-0.989c0,-0.545 0.444,-0.99 0.989,-0.99Zm0.394,1.5l-0.845,0l0.514,-0.818l-0.464,0l0,-0.202l0.857,0l-0.522,0.829l0.459,0l0,0.191l0.001,0Z" style="fill:#fff;"/><path d="M108.328,196.389c0,-0.769 -0.306,-1.506 -0.849,-2.05c-0.544,-0.543 -1.281,-0.849 -2.05,-0.849c-7.857,0 -29.493,0 -37.349,0c-0.769,0 -1.507,0.306 -2.05,0.849c-0.544,0.544 -0.849,1.281 -0.849,2.05c0,0 0,0 0,0l43.147,0l0,0Z" style="fill:#fff;"/><rect x="40.823" y="125.518" width="4.902" height="0.919" style="fill:#dcf3ff;"/><rect x="46.5" y="125.518" width="4.902" height="0.919" style="fill:#dcf3ff;"/><g><path d="M89.608,157.784l9.232,-8.546l4.222,3.908l5.476,-9.621l4.043,5.713l7.255,-6.717" style="fill:none;stroke:#8bc9d3;stroke-width:0.5px;"/><ellipse cx="98.84" cy="149.391" rx="1.087" ry="1.006" style="fill:#8bc9d3;"/><ellipse cx="103.128" cy="153.031" rx="1.084" ry="1.004" style="fill:#8bc9d3;"/><ellipse cx="108.545" cy="143.725" rx="1.084" ry="1.004" style="fill:#8bc9d3;"/><ellipse cx="119.97" cy="142.521" rx="1.084" ry="1.004" style="fill:#8bc9d3;"/><ellipse cx="112.646" cy="149.112" rx="1.084" ry="1.004" style="fill:#8bc9d3;"/><ellipse cx="89.391" cy="158" rx="1.084" ry="1.004" style="fill:#8bc9d3;"/></g></g><g><path d="M397.599,168.394c0,0 -2.492,5.416 -7.699,5.416c-5.207,0 -3.683,-4.842 -5.631,-7.19c-2.42,-2.916 -8.888,-6.494 -8.888,-10.304c0,-3.811 7.729,-5.577 7.729,-8.44c0,-2.863 -4.065,-9.376 1.415,-11.896c5.48,-2.519 3.405,1.527 11.402,-0.424c7.997,-1.951 7.7,-7.564 11.947,-5.366c4.247,2.198 2.417,3.791 4.228,7.736c1.811,3.945 5.943,3.676 5.399,7.612c-0.545,3.937 -3.663,2.957 -2.112,4.964c1.551,2.008 6.63,4.602 4.051,6.985c-2.58,2.384 -4.052,3.375 -4.403,4.612c-0.351,1.236 1.467,10.665 -6.575,8.728c-8.042,-1.937 -8.797,-4.68 -10.863,-2.433Z" style="fill:#89d6f9;"/><path d="M397.77,154.504l-8.518,-2.931" style="fill:none;stroke:#fff;stroke-width:0.24px;"/><path d="M397.77,196.158l0,-53.17" style="fill:none;stroke:#fff;stroke-width:0.24px;"/><path d="M403.413,145.12l1.193,-4.263" style="fill:none;stroke:#fff;stroke-width:0.24px;"/><path d="M399.923,146.701l6.98,0.976" style="fill:none;stroke:#fff;stroke-width:0.24px;"/><path d="M390.716,152.077l-4.285,1.555" style="fill:none;stroke:#fff;stroke-width:0.24px;"/><path d="M403.833,160.344l0.773,-4.117" style="fill:none;stroke:#fff;stroke-width:0.24px;"/><path d="M397.77,162.642l13.673,-5.182" style="fill:none;stroke:#fff;stroke-width:0.24px;"/><path d="M397.77,147.677l9.133,-4.138" style="fill:none;stroke:#fff;stroke-width:0.24px;"/><path d="M393.511,153.038l-1.747,-3.527" style="fill:none;stroke:#fff;stroke-width:0.24px;"/><path d="M406.755,159.236l4.688,1.108" style="fill:none;stroke:#fff;stroke-width:0.24px;"/></g><g><path d="M349.316,158.941c0,0 3.34,7.26 10.32,7.26c6.98,0 4.938,-6.492 7.549,-9.639c3.244,-3.908 11.914,-8.705 11.914,-13.813c0,-5.108 -10.36,-7.475 -10.36,-11.313c0,-3.838 5.449,-12.569 -1.897,-15.947c-7.346,-3.377 -4.565,2.047 -15.285,-0.568c-10.719,-2.615 -10.322,-10.14 -16.015,-7.194c-5.693,2.947 -3.24,5.083 -5.668,10.371c-2.427,5.288 -7.967,4.927 -7.236,10.204c0.73,5.278 4.91,3.964 2.831,6.654c-2.08,2.691 -8.889,6.168 -5.431,9.364c3.458,3.195 5.432,4.524 5.902,6.181c0.471,1.658 -1.966,14.297 8.814,11.701c10.781,-2.597 11.792,-6.273 14.562,-3.261Z" style="fill:#45c6ff;"/><path d="M349.087,140.32l11.418,-3.929" style="fill:none;stroke:#fff;stroke-width:0.24px;"/><path d="M349.087,196.158l0,-71.274" style="fill:none;stroke:#fff;stroke-width:0.24px;"/><path d="M341.522,127.741l-1.599,-5.715" style="fill:none;stroke:#fff;stroke-width:0.24px;"/><path d="M346.201,129.861l-9.358,1.308" style="fill:none;stroke:#fff;stroke-width:0.24px;"/><path d="M358.542,137.067l5.744,2.084" style="fill:none;stroke:#fff;stroke-width:0.24px;"/><path d="M340.959,148.149l-1.036,-5.518" style="fill:none;stroke:#fff;stroke-width:0.24px;"/><path d="M349.087,151.229l-18.328,-6.945" style="fill:none;stroke:#fff;stroke-width:0.24px;"/><path d="M349.087,131.169l-12.244,-5.547" style="fill:none;stroke:#fff;stroke-width:0.24px;"/><path d="M354.796,138.356l2.341,-4.729" style="fill:none;stroke:#fff;stroke-width:0.24px;"/><path d="M337.042,146.665l-6.283,1.484" style="fill:none;stroke:#fff;stroke-width:0.24px;"/></g><g><g><ellipse cx="359.792" cy="237.658" rx="31.386" ry="2.766" style="fill:#e6e6e6;"/><path d="M380.655,235.285c0,-1.021 -0.827,-1.848 -1.848,-1.848c-6.901,0 -31.129,0 -38.03,0c-1.021,0 -1.848,0.827 -1.848,1.848c0,0 0,0 0,0c0,1.021 0.827,1.848 1.848,1.848c6.901,0 31.129,0 38.03,0c1.021,0 1.848,-0.827 1.848,-1.848c0,0 0,0 0,0Z" style="fill:#4db3bb;"/><rect x="340.757" y="220.983" width="38.071" height="12.454" style="fill:#ccfcff;"/><path d="M380.655,222.83c0,-1.02 -0.827,-1.847 -1.848,-1.847c-6.901,0 -31.129,0 -38.03,0c-1.021,0 -1.848,0.827 -1.848,1.847c0,0 0,0.001 0,0.001c0,1.02 0.827,1.847 1.848,1.847c6.901,0 31.129,0 38.03,0c1.021,0 1.848,-0.827 1.848,-1.847c0,0 0,-0.001 0,-0.001Z" style="fill:#4db3bb;"/><path d="M386.509,151.452l-53.433,0l9.598,69.531l34.236,0l9.599,-69.531Z" style="fill:url(#_Linear2);"/></g><g><path d="M365.767,184.17l0,-5.998c0,-1.585 -0.629,-3.105 -1.75,-4.225c-1.12,-1.121 -2.64,-1.75 -4.225,-1.75l0,0c-1.585,0 -3.105,0.629 -4.225,1.75c-1.121,1.12 -1.75,2.64 -1.75,4.225l0,5.998" style="fill:none;stroke:#4db3bb;stroke-width:2px;"/><path d="M369.518,184.037c0,-0.662 -0.537,-1.2 -1.2,-1.2l-17.052,0c-0.663,0 -1.2,0.538 -1.2,1.2l0,9.742c0,0.663 0.537,1.2 1.2,1.2l17.052,0c0.663,0 1.2,-0.537 1.2,-1.2l0,-9.742Z" style="fill:#e2fdff;"/><path d="M359.12,189.41c-0.622,-0.243 -1.058,-0.812 -1.058,-1.476c0,-0.884 0.775,-1.601 1.73,-1.601c0.955,0 1.73,0.717 1.73,1.601c0,0.664 -0.436,1.233 -1.058,1.476l0,1.452c0,0.165 -0.07,0.323 -0.196,0.44c-0.127,0.117 -0.298,0.182 -0.476,0.182c0,0 0,0 0,0c-0.178,0 -0.349,-0.065 -0.475,-0.182c-0.126,-0.117 -0.197,-0.275 -0.197,-0.44l0,-1.452Z" style="fill:#4db3bb;"/></g><path d="M366.314,198.956l0,8.692" style="fill:none;stroke:#e2fdff;stroke-width:1.5px;"/><path d="M353.27,200.199l0,5.116" style="fill:none;stroke:#e2fdff;stroke-width:1.5px;"/><path d="M359.792,202.052l0,3.6" style="fill:none;stroke:#e2fdff;stroke-width:1.5px;"/><path d="M359.792,208.419l0,1.279" style="fill:none;stroke:#e2fdff;stroke-width:1.5px;"/><path d="M359.792,212.465l0,0.777" style="fill:none;stroke:#e2fdff;stroke-width:1.5px;"/><path d="M353.27,208.361l0,1.907" style="fill:none;stroke:#e2fdff;stroke-width:1.5px;"/><g><path d="M387.318,233.383l0,4.298l1.883,0l0,-4.247c0,0 -1.425,-0.102 -1.883,-0.051Z" style="fill:#ffc9c3;"/><ellipse cx="391.637" cy="239.304" rx="16.692" ry="1.621" style="fill:#e6e6e6;"/><path d="M397.037,233.398l0,4.283l1.883,0l0,-4.232c0,0 -1.424,-0.103 -1.883,-0.051Z" style="fill:#ffc9c3;"/><path d="M400.156,189.877c0,0 2.972,2.382 2.972,6.152c0,3.77 -4.581,8.908 -5.638,10.225c0.09,0.021 -1.442,-0.66 -1.442,-0.66c0,0 3.657,-2.59 3.657,-9.245c0.069,-0.175 -0.143,-2.432 -2.375,-3.825c0.065,-0.002 2.826,-2.647 2.826,-2.647Z" style="fill:#ffc9c3;"/><path d="M399.453,237.384c-0.007,-0.131 -0.11,-0.236 -0.241,-0.245c-0.447,-0.042 -1.48,-0.191 -2.453,-0.693c-0.067,-0.035 -0.144,-0.049 -0.219,-0.04c-0.739,0.234 -4.026,2.187 -4.026,2.551c-0.04,0.043 5.442,0.01 6.747,0.002c0.072,-0.001 0.141,-0.031 0.191,-0.084c0.049,-0.052 0.075,-0.123 0.071,-0.195c-0.019,-0.355 -0.052,-0.967 -0.07,-1.296Z" style="fill:#2f2f2f;"/><path d="M389.671,237.384c-0.008,-0.131 -0.111,-0.236 -0.241,-0.245c-0.447,-0.042 -1.481,-0.191 -2.453,-0.693c-0.067,-0.035 -0.144,-0.049 -0.219,-0.04c-0.739,0.234 -4.026,2.187 -4.026,2.551c-0.04,0.043 5.441,0.01 6.747,0.002c0.072,-0.001 0.141,-0.031 0.191,-0.084c0.049,-0.052 0.075,-0.123 0.071,-0.195c-0.019,-0.355 -0.053,-0.967 -0.07,-1.296Z" style="fill:#2f2f2f;"/><path d="M382.167,191.801c0,0 0.067,3.545 -1.5,0.654c-1.573,-2.902 -2.217,-4.524 -2.266,-6.916c-0.049,-2.393 -0.845,-4.554 -1.122,-3.494c-0.277,1.059 0.56,3.136 -0.019,3.205c-0.579,0.069 -1.404,-0.109 -1.151,1.018c0.254,1.126 -0.024,0.552 0.789,1.661c0.813,1.109 0.653,1.359 0.995,2.849c0.341,1.489 1.831,8.112 4.226,8.112c2.395,0 2.684,-4.387 3.131,-5.438c0.095,-0.034 -3.083,-1.651 -3.083,-1.651Z" style="fill:#ffc9c3;"/><path d="M387.955,184.084l3.784,-0.443c0,0 4.897,-0.449 9.04,5.684c-0.058,-0.062 -2.78,2.695 -2.78,2.695l0,12.41l-12.749,0l0,-10.978l-3.758,-2.013c0,0 1.409,-5.21 6.463,-7.355Z" style="fill:#001d4c;"/><path d="M390.917,179.631c0.127,-0.413 0.232,-0.823 1.007,-0.892c0.775,-0.068 1.071,0.979 0.195,1.765c-0.876,0.785 -0.85,0.804 -1.054,1.035c-0.288,0.327 -0.291,-1.441 -0.148,-1.908Z" style="fill:#ffc9c3;"/><path d="M385.252,204.43c0,0 -0.03,19.887 1.302,29.604c-0.055,-0.179 3.232,0 3.232,0c0,0 -1.23,-22.031 2.291,-22.031c3.521,0 3.971,21.827 3.971,21.827l3.54,0c0,0 0.048,-23.313 -1.589,-29.4c0.147,0.156 -12.747,0 -12.747,0Z" style="fill:#febe53;"/><path d="M391.843,183.345c0,0 -0.497,1.856 -2.005,1.856c-1.509,0 -1.883,-1.117 -1.883,-1.117l-0.104,-0.799c0,0 -3.162,0.048 -3.11,-2.009c0.052,-2.057 -0.053,-1.35 -0.053,-1.35c0,0 -0.043,-0.124 -0.292,-0.327c-0.249,-0.203 -0.19,-0.35 0.262,-1.085c0.451,-0.735 0.373,-0.702 0.41,-1.169c0.038,-0.466 -0.188,-2.263 0.346,-2.604c0.533,-0.341 2.989,-1.356 5.981,1.203c2.992,2.558 1.309,5.486 0.613,6.097c0.003,-0.023 -0.165,1.304 -0.165,1.304Z" style="fill:#ffc9c3;"/><path d="M385.244,174.938c0,0 -0.264,-0.843 -0.993,-1.515c-0.73,-0.673 -1.747,-2.46 1.7,-2.308c3.448,0.152 8.756,0.576 9.813,4.341c1.057,3.766 -0.974,6.72 -3.816,7.062c-2.843,0.341 -2.564,0.304 -4.097,0.767c-1.533,0.463 -2.933,0.882 -3.6,-0.059c-0.667,-0.941 -0.047,-3.111 0.504,-2.943c0.552,0.168 2.097,1.334 4.096,0c1.999,-1.334 3.984,-2.454 2.888,-4.023c-1.096,-1.57 -5.048,-2.876 -6.495,-1.322Z" style="fill:#cc7c26;"/></g></g><g><g><ellipse cx="79.714" cy="230.129" rx="19.431" ry="1.687" style="fill:#e6e6e6;"/><path d="M92.63,228.685c0,-0.304 -0.12,-0.595 -0.335,-0.809c-0.214,-0.215 -0.505,-0.335 -0.809,-0.335c-4.272,0 -19.272,0 -23.545,0c-0.303,0 -0.594,0.12 -0.808,0.335c-0.215,0.214 -0.335,0.505 -0.335,0.809c0,0 0,0 0,0c0,0.303 0.12,0.594 0.335,0.809c0.214,0.214 0.505,0.335 0.808,0.335c4.273,0 19.273,0 23.545,0c0.304,0 0.595,-0.121 0.809,-0.335c0.215,-0.215 0.335,-0.506 0.335,-0.809c0,0 0,0 0,0Z" style="fill:#4db3bb;"/><rect x="67.929" y="219.83" width="23.57" height="7.711" style="fill:#ccfcff;"/><path d="M92.63,220.974c0,-0.303 -0.12,-0.594 -0.335,-0.809c-0.214,-0.214 -0.505,-0.335 -0.809,-0.335c-4.272,0 -19.272,0 -23.545,0c-0.303,0 -0.594,0.121 -0.808,0.335c-0.215,0.215 -0.335,0.506 -0.335,0.809c0,0 0,0 0,0c0,0.304 0.12,0.595 0.335,0.809c0.214,0.215 0.505,0.335 0.808,0.335c4.273,0 19.273,0 23.545,0c0.304,0 0.595,-0.12 0.809,-0.335c0.215,-0.214 0.335,-0.505 0.335,-0.809c0,0 0,0 0,0Z" style="fill:#4db3bb;"/><path d="M96.254,176.783l-33.081,0l5.943,43.047l21.196,0l5.942,-43.047Z" style="fill:url(#_Linear3);"/></g><g><ellipse cx="57.111" cy="231.417" rx="11.193" ry="1.262" style="fill:#e6e6e6;"/><path d="M53.25,228.794l0,1.755l1.205,0l0,-1.788l-1.205,0.033Z" style="fill:#ffc9c3;"/><path d="M58.589,228.794l0,1.755l1.205,0l0,-1.788l-1.205,0.033Z" style="fill:#ffc9c3;"/><path d="M52.826,230.259c0,0 1.147,0.023 2.038,-0.418c0.074,-0.055 2.247,0.829 2.247,1.394c0.029,0.027 -4.347,0 -4.347,0l0.062,-0.976Z" style="fill:#2f2f2f;"/><path d="M58.158,230.265c0,0 1.148,0.023 2.04,-0.418c0.073,-0.055 2.248,0.83 2.248,1.395c0.029,0.027 -4.35,0 -4.35,0l0.062,-0.977Z" style="fill:#2f2f2f;"/><path d="M53.639,200.527c0,0 5.317,-0.732 5.988,1.803c0.671,2.535 1.156,9.368 1.156,9.368l-7.533,0l0.236,-6.784c1.139,-1.41 1.624,-2.851 0.153,-4.387Z" style="fill:#71cef7;"/><path d="M55.68,200.429c0,0 -0.064,-1.286 -0.043,-1.842c0.021,-0.556 0.095,-5.043 4.624,-2.079c0.018,-0.08 1.163,1.243 -0.691,2.927c-1.854,1.684 -2.483,1.639 -3.178,1.473c-0.695,-0.166 -0.712,-0.479 -0.712,-0.479Z" style="fill:#ffc9c3;"/><path d="M52.783,229.079c0,0 -0.163,-10.358 0.467,-17.381c-0.029,-0.051 7.533,0 7.533,0c0,0 0.085,13.417 -0.582,17.224c0.128,0.287 -2.236,0 -2.236,0c0,0 0.735,-12.969 -0.949,-12.969c-1.684,0 -1.976,12.951 -1.976,12.951l-2.257,0.175Z" style="fill:#001d4c;"/><path d="M64.137,202.624l-5.438,0l-1.249,6.967l5.438,0l1.249,-6.967Z" style="fill:#001d4c;"/><path d="M53.639,200.527c0,0 2.363,1.582 -0.153,4.387c-0.016,0.012 -1.882,1.994 1.685,1.149c2.216,-0.524 1.814,-0.024 3.081,-0.95c0.115,0.033 -0.393,0.993 1.069,0.304c0.185,-0.031 0.172,1.266 -2.305,1.226c-0.519,-0.111 -3.871,1.4 -5.507,1.012c-1.636,-0.388 0.393,-5.751 2.13,-7.128Z" style="fill:#ffc9c3;"/><path d="M61.641,207.518c0,0 1.578,0.068 1.724,-0.616c0.013,-0.063 0.536,1.4 -0.682,1.509c-0.074,-0.058 -0.838,-0.086 -1.042,-0.893Z" style="fill:#ffc9c3;"/><path d="M55.804,197.27c0.331,-1.309 1.336,-2.804 4.457,-0.762c0.014,-0.066 0.781,0.804 0.052,2.042c-0.006,0.001 -3.03,0.232 -4.509,-1.28Z" style="fill:#2f2f2f;"/></g><path d="M85.005,202.745l0,7.09" style="fill:none;stroke:#e2fdff;stroke-width:1px;"/><path d="M74.364,206.11l0,4.173" style="fill:none;stroke:#e2fdff;stroke-width:1px;"/><path d="M79.684,207.622l0,2.936" style="fill:none;stroke:#e2fdff;stroke-width:1px;"/><path d="M79.684,212.815l0,1.043" style="fill:none;stroke:#e2fdff;stroke-width:1px;"/><path d="M79.684,216.115l0,0.634" style="fill:none;stroke:#e2fdff;stroke-width:1px;"/><path d="M74.364,212.767l0,1.556" style="fill:none;stroke:#e2fdff;stroke-width:1px;"/><g><path d="M75.987,192.04l7.454,4.548l-7.454,4.549" style="fill:none;stroke:#e2fdff;stroke-width:2px;"/><ellipse cx="75.987" cy="192.04" rx="2.279" ry="2.109" style="fill:#4db3bb;"/><ellipse cx="83.441" cy="196.588" rx="2.279" ry="2.109" style="fill:#4db3bb;"/><ellipse cx="75.987" cy="201.137" rx="2.279" ry="2.109" style="fill:#4db3bb;"/></g></g><g><ellipse cx="125.146" cy="203.958" rx="15.95" ry="2.312" style="fill:#e6e6e6;"/><g><path d="M117.584,203.451l-1.71,0l0,-16.942l1.71,0l0,16.942Z" style="fill:#574c46;"/><path d="M134.419,203.451l-1.711,0l0,-16.942l1.711,0l0,16.942Z" style="fill:#574c46;"/><path d="M139.095,195.577l-27.898,0c0,0 0.101,-0.184 0.19,-0.344c0.079,-0.144 0.231,-0.234 0.396,-0.234c2.645,0 24.082,0 26.726,0c0.165,0 0.317,0.09 0.397,0.234c0.088,0.16 0.189,0.344 0.189,0.344Z" style="fill:#8d5943;"/><path d="M139.095,195.548l0,1.328c0,0.295 -0.239,0.534 -0.534,0.534c-3.516,0 -23.314,0 -26.83,0c-0.295,0 -0.534,-0.239 -0.534,-0.534c0,-0.55 0,-1.328 0,-1.328l27.898,0Z" style="fill:#b87951;"/><path d="M136.968,192.355c0.261,0 0.473,0.211 0.473,0.472c0,0.273 0,0.615 0,0.888c0,0.261 -0.212,0.473 -0.473,0.473c-3.105,0 -20.539,0 -23.644,0c-0.261,0 -0.473,-0.212 -0.473,-0.473c0,-0.273 0,-0.615 0,-0.888c0,-0.261 0.212,-0.472 0.473,-0.472c3.105,0 20.539,0 23.644,0Z" style="fill:#b87951;"/><path d="M136.968,189.432c0.261,0 0.473,0.212 0.473,0.473c0,0.273 0,0.615 0,0.887c0,0.262 -0.212,0.473 -0.473,0.473c-3.105,0 -20.539,0 -23.644,0c-0.261,0 -0.473,-0.211 -0.473,-0.473c0,-0.272 0,-0.614 0,-0.887c0,-0.261 0.212,-0.473 0.473,-0.473c3.105,0 20.539,0 23.644,0Z" style="fill:#b87951;"/><path d="M136.968,186.509c0.261,0 0.473,0.212 0.473,0.473c0,0.273 0,0.615 0,0.888c0,0.261 -0.212,0.473 -0.473,0.473c-3.105,0 -20.539,0 -23.644,0c-0.261,0 -0.473,-0.212 -0.473,-0.473c0,-0.273 0,-0.615 0,-0.888c0,-0.261 0.212,-0.473 0.473,-0.473c3.105,0 20.539,0 23.644,0Z" style="fill:#b87951;"/><path d="M114.927,204.839l-1.716,0l0,-7.423l1.716,0l0,7.423Z" style="fill:#574c46;"/><path d="M137.081,204.843l-1.711,0l0,-7.427l1.711,0l0,7.427Z" style="fill:#574c46;"/></g></g><g><ellipse cx="424.279" cy="204.149" rx="15.95" ry="2.312" style="fill:#e6e6e6;"/><g><path d="M416.717,203.642l-1.711,0l0,-16.942l1.711,0l0,16.942Z" style="fill:#574c46;"/><path d="M433.551,203.642l-1.71,0l0,-16.942l1.71,0l0,16.942Z" style="fill:#574c46;"/><path d="M438.228,195.767l-27.898,0c0,0 0.101,-0.183 0.189,-0.343c0.08,-0.144 0.232,-0.234 0.397,-0.234c2.644,0 24.081,0 26.726,0c0.165,0 0.317,0.09 0.396,0.234c0.089,0.16 0.19,0.343 0.19,0.343Z" style="fill:#8d5943;"/><path d="M438.228,195.739l0,1.328c0,0.295 -0.239,0.534 -0.534,0.534c-3.516,0 -23.314,0 -26.83,0c-0.295,0 -0.534,-0.239 -0.534,-0.534c0,-0.55 0,-1.328 0,-1.328l27.898,0Z" style="fill:#b87951;"/><path d="M436.101,192.545c0.261,0 0.473,0.212 0.473,0.473c0,0.273 0,0.615 0,0.888c0,0.261 -0.212,0.473 -0.473,0.473c-3.105,0 -20.539,0 -23.644,0c-0.261,0 -0.473,-0.212 -0.473,-0.473c0,-0.273 0,-0.615 0,-0.888c0,-0.261 0.212,-0.473 0.473,-0.473c3.105,0 20.539,0 23.644,0Z" style="fill:#b87951;"/><path d="M436.101,189.623c0.261,0 0.473,0.211 0.473,0.472c0,0.273 0,0.615 0,0.888c0,0.261 -0.212,0.473 -0.473,0.473c-3.105,0 -20.539,0 -23.644,0c-0.261,0 -0.473,-0.212 -0.473,-0.473c0,-0.273 0,-0.615 0,-0.888c0,-0.261 0.212,-0.472 0.473,-0.472c3.105,0 20.539,0 23.644,0Z" style="fill:#b87951;"/><path d="M436.101,186.7c0.261,0 0.473,0.211 0.473,0.473c0,0.273 0,0.615 0,0.887c0,0.262 -0.212,0.473 -0.473,0.473c-3.105,0 -20.539,0 -23.644,0c-0.261,0 -0.473,-0.211 -0.473,-0.473c0,-0.272 0,-0.614 0,-0.887c0,-0.262 0.212,-0.473 0.473,-0.473c3.105,0 20.539,0 23.644,0Z" style="fill:#b87951;"/><path d="M414.059,205.03l-1.715,0l0,-7.423l1.715,0l0,7.423Z" style="fill:#574c46;"/><path d="M436.214,205.034l-1.711,0l0,-7.427l1.711,0l0,7.427Z" style="fill:#574c46;"/></g></g><path d="M339.775,43.152l39.485,0c0,0 -0.392,-1.16 -4.466,-1.409c-4.789,-0.294 -3.046,-1.121 -5.653,-3.096c-3.069,-2.326 -2.503,0.081 -3.735,0.741c-2.509,1.344 -2.884,-2.48 -5.848,-3.05c-4.134,-0.794 0.38,3.554 -5.59,1.567c-5.096,-1.696 -2.294,3.419 -5.819,1.719c-3.525,-1.7 -1.763,3.104 -5.21,1.196c-2.418,-1.339 -0.608,1.221 -4.257,1.377c-3.286,0.14 -4.331,0.875 -4.331,0.875l5.424,0.08Z" style="fill:#fff;"/><path d="M45.939,28.312l50.45,0c0,0 -0.501,-1.481 -5.705,-1.8c-6.119,-0.375 -3.892,-1.432 -7.223,-3.956c-3.921,-2.971 -3.198,0.104 -4.773,0.948c-3.205,1.717 -3.684,-3.169 -7.472,-3.897c-5.281,-1.015 0.486,4.541 -7.142,2.002c-6.511,-2.167 -2.931,4.368 -7.435,2.196c-4.504,-2.172 -2.253,3.966 -6.656,1.528c-3.09,-1.71 -0.777,1.561 -5.44,1.759c-4.198,0.179 -5.534,1.119 -5.534,1.119l6.93,0.101Z" style="fill:#eef9ff;"/><path d="M440.107,98.094l-50.45,0c0,0 0.501,-1.481 5.706,-1.8c6.118,-0.375 3.892,-1.432 7.222,-3.956c3.921,-2.971 3.199,0.104 4.773,0.948c3.206,1.717 3.684,-3.169 7.472,-3.897c5.281,-1.016 -0.486,4.541 7.143,2.001c6.51,-2.166 2.93,4.368 7.434,2.197c4.505,-2.172 2.253,3.965 6.657,1.528c3.09,-1.71 0.776,1.561 5.439,1.759c4.198,0.179 5.534,1.118 5.534,1.118l-6.93,0.102Z" style="fill:#eef9ff;"/></g><defs><linearGradient id="_Linear2" x1="0" y1="0" x2="1" y2="0" gradientUnits="userSpaceOnUse" gradientTransform="matrix(6.30639e-15,95.3486,-102.991,5.83842e-15,359.792,144.717)"><stop offset="0" style="stop-color:#c1f0f7;stop-opacity:0"/><stop offset="1" style="stop-color:#00ffd9;stop-opacity:1"/></linearGradient><linearGradient id="_Linear3" x1="0" y1="0" x2="1" y2="0" gradientUnits="userSpaceOnUse" gradientTransform="matrix(3.90434e-15,59.0312,-63.7627,3.61462e-15,79.7139,172.613)"><stop offset="0" style="stop-color:#c1f0f7;stop-opacity:0"/><stop offset="1" style="stop-color:#00ffd9;stop-opacity:1"/></linearGradient></defs></svg>